{
  "accessors": [
    {
      "bufferView": 2,
      "componentType": 5126,
      "count": 1023,
      "max": [
        1.79367995262146,
        4.337464809417725,
        -0.06001200154423714
      ],
      "min": [
        -1.79367995262146,
        0.7501040101051331,
        -0.1929139941930771
      ],
      "type": "VEC3"
    },
    {
      "bufferView": 2,
      "byteOffset": 12276,
      "componentType": 5126,
      "count": 1023,
      "max": [
        0.9952060580253601,
        0.9952060580253601,
        1.0
      ],
      "min": [
        -0.9952060580253601,
        -0.9952060580253601,
        -0.9948989152908325
      ],
      "type": "VEC3"
    },
    {
      "bufferView": 3,
      "componentType": 5126,
      "count": 1023,
      "max": [
        0.6300737261772156,
        0.9455100297927856,
        0.9952059388160706,
        1.0
      ],
      "min": [
        -0.6504541635513306,
        -0.6504575610160828,
        -0.7091131806373596,
        1.0
      ],
      "type": "VEC4"
    },
    {
      "bufferView": 1,
      "componentType": 5126,
      "count": 1023,
      "max": [
        0.9836570024490356,
        1.0
      ],
      "min": [
        0.0,
        0.0
      ],
      "type": "VEC2"
    },
    {
      "bufferView": 0,
      "componentType": 5125,
      "count": 5178,
      "type": "SCALAR"
    },
    {
      "bufferView": 2,
      "byteOffset": 24552,
      "componentType": 5126,
      "count": 9606,
      "max": [
        1.6269780397415161,
        4.169588088989258,
        -0.17606599628925323
      ],
      "min": [
        -1.6269780397415161,
        0.9179819822311401,
        -1.7000410556793213
      ],
      "type": "VEC3"
    },
    {
      "bufferView": 2,
      "byteOffset": 139824,
      "componentType": 5126,
      "count": 9606,
      "max": [
        0.9999020099639893,
        1.0,
        1.0
      ],
      "min": [
        -1.0,
        -0.9999486207962036,
        -1.0
      ],
      "type": "VEC3"
    },
    {
      "bufferView": 3,
      "byteOffset": 16368,
      "componentType": 5126,
      "count": 9606,
      "max": [
        0.9998779892921448,
        0.9999960064888,
        1.0,
        1.0
      ],
      "min": [
        -1.0,
        -1.0,
        -0.9997401237487793,
        1.0
      ],
      "type": "VEC4"
    },
    {
      "bufferView": 1,
      "byteOffset": 8184,
      "componentType": 5126,
      "count": 9606,
      "max": [
        1.0,
        1.0
      ],
      "min": [
        0.0,
        0.0
      ],
      "type": "VEC2"
    },
    {
      "bufferView": 0,
      "byteOffset": 20712,
      "componentType": 5125,
      "count": 47592,
      "type": "SCALAR"
    }
  ],
  "asset": {
    "extras": {
      "author": "Jeremy (https://sketchfab.com/thedoctah)",
      "license": "CC-BY-4.0 (http://creativecommons.org/licenses/by/4.0/)",
      "source": "https://sketchfab.com/3d-models/round-table-furniture-model-6d283b09a88246758040d691d8e0ce51",
      "title": "Round Table Furniture Model"
    },
    "generator": "Sketchfab-11.32.0",
    "version": "2.0"
  },
  "bufferViews": [
    {
      "buffer": 0,
      "byteLength": 211080,
      "name": "floatBufferViews",
      "target": 34963
    },
    {
      "buffer": 0,
      "byteLength": 85032,
      "byteOffset": 211080,
      "byteStride": 8,
      "name": "floatBufferViews",
      "target": 34962
    },
    {
      "buffer": 0,
      "byteLength": 255096,
      "byteOffset": 296112,
      "byteStride": 12,
      "name": "floatBufferViews",
      "target": 34962
    },
    {
      "buffer": 0,
      "byteLength": 170064,
      "byteOffset": 551208,
      "byteStride": 16,
      "name": "floatBufferViews",
      "target": 34962
    }
  ],
  "buffers": [
    {
      "byteLength": 721272,
      "uri": "scene.bin"
    }
  ],
  "images": [
    {
      "uri": "textures/tablelegs_baseColor.png"
    },
    {
      "uri": "textures/tablelegs_metallicRoughness.png"
    },
    {
      "uri": "textures/tablelegs_normal.png"
    },
    {
      "uri": "textures/tabletop_baseColor.png"
    },
    {
      "uri": "textures/tabletop_metallicRoughness.png"
    },
    {
      "uri": "textures/tabletop_normal.png"
    }
  ],
  "materials": [
    {
      "doubleSided": true,
      "name": "tablelegs",
      "normalTexture": {
        "index": 2
      },
      "pbrMetallicRoughness": {
        "baseColorFactor": [
          0.7070101356486633,
          0.7070101356486633,
          0.7070101356486633,
          1.0
        ],
        "baseColorTexture": {
          "index": 0
        },
        "metallicRoughnessTexture": {
          "index": 1
        },
        "roughnessFactor": 0.5793264992186977
      }
    },
    {
      "doubleSided": true,
      "name": "tabletop",
      "normalTexture": {
        "index": 5
      },
      "pbrMetallicRoughness": {
        "baseColorFactor": [
          0.7738920404453119,
          0.7738920404453119,
          0.7738920404453119,
          1.0
        ],
        "baseColorTexture": {
          "index": 3
        },
        "metallicFactor": 0.9684575816719261,
        "metallicRoughnessTexture": {
          "index": 4
        },
        "roughnessFactor": 0.3117988800321033
      }
    }
  ],
  "meshes": [
    {
      "name": "Object_0",
      "primitives": [
        {
          "attributes": {
            "NORMAL": 1,
            "POSITION": 0,
            "TANGENT": 2,
            "TEXCOORD_0": 3
          },
          "indices": 4,
          "material": 1,
          "mode": 4
        }
      ]
    },
    {
      "name": "Object_1",
      "primitives": [
        {
          "attributes": {
            "NORMAL": 6,
            "POSITION": 5,
            "TANGENT": 7,
            "TEXCOORD_0": 8
          },
          "indices": 9,
          "material": 0,
          "mode": 4
        }
      ]
    }
  ],
  "nodes": [
    {
      "children": [
        1
      ],
      "matrix": [
        1.0,
        0.0,
        0.0,
        0.0,
        0.0,
        2.220446049250313e-16,
        -1.0,
        0.0,
        0.0,
        1.0,
        2.220446049250313e-16,
        0.0,
        0.0,
        0.0,
        0.0,
        1.0
      ],
      "name": "Sketchfab_model"
    },
    {
      "children": [
        2,
        3
      ],
      "name": "roundtable1.obj.cleaner.materialmerger.gles"
    },
    {
      "mesh": 0,
      "name": "Object_2"
    },
    {
      "mesh": 1,
      "name": "Object_3"
    }
  ],
  "samplers": [
    {
      "magFilter": 9729,
      "minFilter": 9987,
      "wrapS": 10497,
      "wrapT": 10497
    }
  ],
  "scene": 0,
  "scenes": [
    {
      "name": "Sketchfab_Scene",
      "nodes": [
        0
      ]
    }
  ],
  "textures": [
    {
      "sampler": 0,
      "source": 0
    },
    {
      "sampler": 0,
      "source": 1
    },
    {
      "sampler": 0,
      "source": 2
    },
    {
      "sampler": 0,
      "source": 3
    },
    {
      "sampler": 0,
      "source": 4
    },
    {
      "sampler": 0,
      "source": 5
    }
  ]
}
